<?xml version="1.0" encoding="UTF-8"?>
<svg version="1.1" viewBox="0 0 301.27 315.12" xmlns="http://www.w3.org/2000/svg" xmlns:xlink="http://www.w3.org/1999/xlink">
 <defs>
  <filter id="e" x="-.026215" y="-.284" width="1.0524" height="1.568" color-interpolation-filters="sRGB">
   <feGaussianBlur stdDeviation="1.2402846"/>
  </filter>
  <linearGradient id="d" x1="752.2" x2="770.65" y1="-109.64" y2="9.8218" gradientTransform="matrix(2.5281 0 0 2.5281 -1098.4 676.24)" gradientUnits="userSpaceOnUse">
   <stop stop-color="#3d4d69" offset="0"/>
   <stop stop-color="#4c6083" offset="1"/>
  </linearGradient>
  <filter id="j" x="-.22286" y="-.0053425" width="1.4457" height="1.0107" color-interpolation-filters="sRGB">
   <feGaussianBlur stdDeviation="0.29161963"/>
  </filter>
  <filter id="i" x="-.60825" y="-.012242" width="2.2165" height="1.0245" color-interpolation-filters="sRGB">
   <feGaussianBlur stdDeviation="0.66675495"/>
  </filter>
  <radialGradient id="c" cx="735.33" cy="-103.6" r="56.223" gradientTransform="matrix(-.75298 1.9982 -1.5658 -.59005 1126.8 -1643.8)" gradientUnits="userSpaceOnUse">
   <stop stop-color="#fff" offset="0"/>
   <stop stop-color="#fff" stop-opacity="0" offset="1"/>
  </radialGradient>
  <filter id="l" color-interpolation-filters="sRGB">
   <feGaussianBlur stdDeviation="0.26391554"/>
  </filter>
  <filter id="f" x="-.9252" y="-.018357" width="2.8504" height="1.0367" color-interpolation-filters="sRGB">
   <feGaussianBlur stdDeviation="0.84177765"/>
  </filter>
  <linearGradient id="a" x1="748.6" x2="748.95" y1="-12.386" y2="-87.9" gradientTransform="matrix(2.5281 0 0 2.5281 -1083.2 685.68)" gradientUnits="userSpaceOnUse">
   <stop stop-color="#47597a" offset="0"/>
   <stop stop-color="#8d9199" offset=".26235"/>
   <stop stop-color="#a5a7ab" offset=".53415"/>
   <stop stop-color="#bebebe" offset="1"/>
  </linearGradient>
  <filter id="k" x="-.025487" y="-.11519" width="1.051" height="1.2304" color-interpolation-filters="sRGB">
   <feGaussianBlur stdDeviation="0.21637052"/>
  </filter>
  <clipPath id="m">
   <path d="m786.96-154.43-1.7384-7.2794-101.04-1.0865c-4.0001 2.215-3.2236 6.2688-0.76054 8.2573z" fill="#bebebe"/>
  </clipPath>
  <filter id="h" color-interpolation-filters="sRGB">
   <feGaussianBlur stdDeviation="0.18514536"/>
  </filter>
  <filter id="g" x="-.43478" y="-.046172" width="1.8696" height="1.0923" color-interpolation-filters="sRGB">
   <feGaussianBlur stdDeviation="0.78592226"/>
  </filter>
  <radialGradient id="b" cx="703.53" cy="233.68" r="4.0554" gradientTransform="matrix(1.3566 0 0 7.2849 -250.87 -1468)" gradientUnits="userSpaceOnUse">
   <stop stop-color="#babbbb" offset="0"/>
   <stop stop-color="#babbbb" stop-opacity="0" offset="1"/>
  </radialGradient>
 </defs>
 <g transform="translate(-192.98 -370.36)">
  <g transform="matrix(.84388 0 0 .84388 -341.66 68.417)">
   <path transform="matrix(2.9873 0 0 2.9081 -1450.1 -11.97)" d="m814.05 247.34c0 4.6879-25.418 5.2406-56.774 5.2406-31.355 0-57.21-0.10435-56.774-5.2406 0.24504-2.8834 25.418-5.2406 56.774-5.2406 31.355 0 56.774 2.3463 56.774 5.2406z" fill-rule="evenodd" filter="url(#e)" opacity=".43363"/>
   <path d="m948.84 704.77c-0.0298 8.5182-3.1631 11.862-8.4494 11.618l-264.04 1.3954c-12.185-10.756-9.2014-15.324-11.618-30.629l-1.0562-306.29c5.4825-21.349 13.458-22.731 19.422-23.059l255.18 2.9913c18.862 0.4085 13.145 0.32876 13.73 29.573 0 0 3.2309 4.4209 4.2247 7.3932z" fill="url(#d)"/>
   <path d="m729.01 717.24 4.6614-322.41-2.3307-7.769-52.288-0.54935c-11.093-9.3743-3.608-20.969 1.0126-22.122l46.018-0.82402-3.288-5.6187-42.42 3e-3c-12.525 2.24-17.536 15.532-16.625 28.334l1.5538 303.77c0.29005 16.092 2.9979 20.619 11.689 26.993z" fill="#273143"/>
   <path d="m941.43 385.96-4.3948-18.403-255.45-2.7468c-10.113 5.5998-8.1496 15.848-1.9227 20.875z" fill="#bebebe"/>
   <path d="m681.04 364.03 255.72 3.2961 0.54935 22.523 11.941-0.54935v-17.579c0.19893-7.7866-0.1072-7.2656-6.9972-8.4139l-263.26-3.92z" fill="#273143"/>
   <path d="m892.42 391.06c19.609 0.62006 52.868-0.76621 58.828 1.8602 4.8432 6.2234 4.6713 17.371 3.9528 26.508l0.69761-4.1854 0.69758-16.044c-1.58-11.89-9.73-11.46-21.17-12.55l-181.6-1.1625-74.407 0.69744c-8.7216-8.1552-4.622-8.8877-6.0456-12.556-1.8272 7.714 2.5848 13.382 3.9528 16.044l55.573 1.6277" fill="#273143"/>
   <path transform="matrix(2.5281 0 0 2.5281 -1098.4 676.24)" d="m708.15-114.75 1.653 2.9664-0.50942 127.87 1.3752 0.08508 0.62172-127.95-1.1642-3.0532z" fill="#425371" filter="url(#j)"/>
   <path transform="matrix(2.5281 0 0 2.5281 -1098.4 676.24)" d="m707.03-114.78 0.91997 2.9967 0.1357 127.72 1.2637-0.25802 0.31153-127.24-1.1678-3.0821z" fill="#384660" filter="url(#i)"/>
   <path d="m731.18 389-3.2616 328.76 2.6092-0.65231 3.9139-327.46z" fill="#425371"/>
   <path transform="matrix(2.5281 0 0 2.5281 -1098.4 676.24)" d="m786.59-112.76 20.171 0.65757c4.5052 0.42626 3.7794 1.6823 3.7982 5.2829 4e-3 2.4756-2.6716 117.53-2.2394 120.01l3.2851-115.82 0.27592-6.3462c-0.6213-4.7036-2.84-3.8236-7.3653-4.2546l-71.872-0.58283-29.156-0.36795c-3.4498-3.2258-2.1042-4.0674-2.6672-5.5185-0.72276 3.0513 2.0545 5.2308 2.5956 6.2837" fill="url(#c)" filter="url(#l)"/>
   <path transform="matrix(2.9873 0 0 2.9873 -1445.4 699.59)" d="m709.61-103.75-0.21879 109.84 0.87344-0.21836 0.43715-109.4z" fill="#5d759f" filter="url(#f)"/>
   <g transform="scale(.99311 1.0069)" fill="#e8e8e8">
    <path d="m845.68 465.71c-6e-3 -4.4914-1.8311-8.5236-5.4741-12.097-3.6431-3.5726-9.0661-5.4611-16.269-5.6655-6.5843 0.16608-12.02 2.0546-16.307 5.6655-4.2874 3.6113-6.5077 7.9498-6.6608 13.015 0.12759 6.074 2.1692 10.923 6.1249 14.547 3.9556 3.624 9.0597 5.4105 15.312 5.3593 8.2047-0.38903 14.151-2.6731 17.839-6.8522 3.6876-4.1788 5.4996-8.8362 5.4358-13.972zm21.437 175.78v-5.8186c0.0254-0.91873-0.17872-1.6078-0.61249-2.0672-0.43393-0.45936-1.2506-0.68904-2.45-0.68904h-11.025c-1.6653 0.0319-2.9285-0.56782-3.7898-1.7992-0.86137-1.2313-1.4356-3.2857-1.7226-6.1632-0.14681-1.8247-0.23613-5.1423-0.26797-9.9529-0.032-4.8105-0.0447-10.272-0.0383-16.384v-32.768c-0.0128-13.609 0.0127-24.901 0.0766-33.878 0.0637-8.9766 0.24238-14.834 0.53593-17.571 0.15943-1.0909-6e-3 -1.9713-0.49765-2.6414-0.49133-0.66978-1.3463-1.0143-2.5648-1.0336-2.1438 1.4e-4 -4.9 0.61262-8.2686 1.8375l-45.63 14.71c-1.3462 0.44672-2.2522 0.85504-2.7179 1.225-0.46575 0.37017-0.68267 0.77849-0.65076 1.225v3.3687c-0.0574 0.90608 0.13398 1.6972 0.57421 2.3734 0.44022 0.6764 1.4738 1.3144 3.1007 1.914 6.2397 2.2778 10.297 4.9957 12.173 8.1537 1.8757 3.1582 2.7179 6.8714 2.5265 11.14l0.61248 42.874c0.0127 4.313-0.0128 8.779-0.0766 13.398-0.0638 4.6192-0.24247 9.2384-0.53592 13.858-0.16591 2.3989-0.75288 4.0322-1.7609 4.8999-1.0081 0.8677-2.3606 1.276-4.0577 1.225h-11.331c-1.0655-0.0127-1.8438 0.16589-2.3351 0.53593-0.49127 0.37005-0.73371 1.0081-0.72732 1.914v6.1249c6e-3 1.1995 0.2233 2.0161 0.65077 2.45 0.42746 0.43384 1.0272 0.638 1.7992 0.61249 1.7418-0.0383 5.455-0.19141 11.14-0.45937 5.6846-0.26797 12.996-0.42109 21.935-0.45936 13.302 0.0383 23.523 0.1914 30.663 0.45937 7.1392 0.26796 11.312 0.42108 12.518 0.45937 1.0525 6e-3 1.7798-0.23608 2.1818-0.72735 0.40184-0.49126 0.59323-1.2696 0.57418-2.3351z"/>
   </g>
   <g transform="scale(1.0033 .99673)" fill="#273143">
    <path d="m837.66 477.3c-6e-3 -4.4914-1.8311-8.5236-5.4741-12.097-3.6431-3.5726-9.0661-5.4612-16.269-5.6655-6.5843 0.16608-12.02 2.0546-16.307 5.6655-4.2874 3.6113-6.5077 7.9498-6.6608 13.015 0.12759 6.074 2.1692 10.923 6.1249 14.547 3.9556 3.624 9.0597 5.4105 15.312 5.3593 8.2047-0.38903 14.151-2.6731 17.839-6.8522 3.6876-4.1788 5.4996-8.8362 5.4358-13.972zm21.437 175.78v-5.8186c0.0254-0.91872-0.17872-1.6078-0.61249-2.0671-0.43393-0.45936-1.2506-0.68904-2.4499-0.68905h-11.025c-1.6653 0.0319-2.9285-0.56781-3.7898-1.7992-0.86137-1.2313-1.4356-3.2857-1.7226-6.1632-0.14681-1.8247-0.23613-5.1423-0.26797-9.9529-0.032-4.8105-0.0447-10.272-0.0383-16.384v-32.768c-0.0128-13.609 0.0127-24.901 0.0766-33.878 0.0637-8.9766 0.24237-14.834 0.53592-17.571 0.15943-1.0909-6e-3 -1.9713-0.49765-2.6414-0.49133-0.66978-1.3462-1.0143-2.5648-1.0336-2.1438 1.3e-4 -4.9 0.61262-8.2686 1.8375l-45.63 14.7c-1.3462 0.44672-2.2522 0.85504-2.7179 1.225-0.46575 0.37016-0.68268 0.77849-0.65077 1.225v3.3687c-0.0574 0.90609 0.13398 1.6972 0.57421 2.3734 0.44022 0.6764 1.4738 1.3144 3.1007 1.914 6.2397 2.2778 10.297 4.9957 12.173 8.1537 1.8757 3.1582 2.7179 6.8714 2.5265 11.14l0.61249 42.874c0.0127 4.313-0.0128 8.779-0.0766 13.398-0.0638 4.6192-0.24247 9.2384-0.53592 13.858-0.16591 2.3989-0.75288 4.0322-1.7609 4.8999-1.0081 0.8677-2.3606 1.276-4.0577 1.225h-11.331c-1.0655-0.0127-1.8438 0.1659-2.3351 0.53593-0.49127 0.37006-0.73371 1.0081-0.72732 1.914v6.1249c6e-3 1.1995 0.2233 2.0161 0.65077 2.45 0.42746 0.43384 1.0272 0.638 1.7992 0.61249 1.7418-0.0383 5.455-0.19141 11.14-0.45937 5.6846-0.26797 12.996-0.42109 21.935-0.45937 13.302 0.0383 23.523 0.19141 30.663 0.45937 7.1392 0.26797 11.312 0.42109 12.518 0.45937 1.0525 6e-3 1.7798-0.23607 2.1818-0.72734 0.40184-0.49127 0.59323-1.2696 0.57418-2.3351z"/>
   </g>
   <g transform="scale(1.014 .98622)" fill="url(#a)" stroke="#e8e8e8" stroke-width="1.5169">
    <path d="m830.05 475.14c-6e-3 -4.4914-1.8311-8.5236-5.4741-12.097-3.6431-3.5726-9.0661-5.4611-16.269-5.6655-6.5843 0.16607-12.02 2.0546-16.307 5.6655-4.2874 3.6113-6.5077 7.9498-6.6608 13.015 0.12759 6.074 2.1692 10.923 6.1249 14.547 3.9556 3.624 9.0597 5.4105 15.312 5.3593 8.2047-0.38903 14.151-2.6731 17.839-6.8522 3.6876-4.1788 5.4996-8.8362 5.4358-13.972zm21.437 175.78v-5.8186c0.0254-0.91872-0.17872-1.6078-0.61248-2.0672-0.43394-0.45936-1.2506-0.68904-2.45-0.68904h-11.025c-1.6653 0.0319-2.9285-0.56782-3.7898-1.7992-0.86137-1.2313-1.4356-3.2857-1.7226-6.1632-0.14681-1.8247-0.23613-5.1423-0.26796-9.9529-0.032-4.8105-0.0447-10.272-0.0383-16.384v-32.768c-0.0128-13.609 0.0127-24.901 0.0766-33.878 0.0637-8.9766 0.24237-14.834 0.53592-17.571 0.15943-1.0909-6e-3 -1.9713-0.49765-2.6414-0.49133-0.66977-1.3462-1.0143-2.5648-1.0336-2.1438 1.3e-4 -4.9 0.61261-8.2686 1.8375l-45.63 14.7c-1.3462 0.44672-2.2522 0.85505-2.7179 1.225-0.46575 0.37016-0.68268 0.77848-0.65077 1.225v3.3687c-0.0574 0.90608 0.13398 1.6972 0.57421 2.3734 0.44022 0.6764 1.4738 1.3144 3.1007 1.914 6.2397 2.2778 10.297 4.9957 12.173 8.1537 1.8757 3.1582 2.7179 6.8714 2.5265 11.14l0.61249 42.874c0.0127 4.313-0.0128 8.779-0.0766 13.398-0.0638 4.6192-0.24247 9.2384-0.53592 13.858-0.16591 2.3989-0.75287 4.0322-1.7609 4.8999-1.0081 0.8677-2.3606 1.276-4.0577 1.225h-11.331c-1.0655-0.0128-1.8439 0.16589-2.3351 0.53593-0.49127 0.37005-0.73371 1.0081-0.72732 1.914v6.1249c6e-3 1.1995 0.2233 2.0161 0.65077 2.45 0.42746 0.43384 1.0272 0.63801 1.7992 0.61249 1.7418-0.0383 5.455-0.1914 11.14-0.45937 5.6846-0.26797 12.996-0.42109 21.935-0.45936 13.302 0.0383 23.523 0.19141 30.663 0.45937 7.1392 0.26796 11.312 0.42108 12.518 0.45937 1.0525 6e-3 1.7798-0.23608 2.1818-0.72735 0.40183-0.49126 0.59322-1.2696 0.57417-2.3351z" fill="url(#a)" stroke="#e8e8e8"/>
   </g>
   <path transform="matrix(2.5281 0 0 2.5281 -1102.4 58.031)" d="m810.73 120.42-0.13567 0.15688c-0.91639-0.0667-90.211-0.50864-91.32-0.48862-4.6873 0.0846-9.4502-0.18299-11.096-0.0314-4.6919 0.82696-4.1849 1.312-5.3022 3.2983 0.36183-4.2228 6.9903-3.9304 16.396-3.6424 0.90595 0.0277 90.675 0.69675 91.459 0.70721z" fill="#f2f2f2" filter="url(#k)" opacity=".74336"/>
   <g transform="matrix(2.5281 0 0 2.5281 -1048.5 776.69)" clip-path="url(#m)" fill="#7c828d" fill-rule="evenodd">
    <path d="m682.34-162.94 101.42 1.404-101.43-0.84242z"/>
    <path d="m681.23-159.24c34.481 0.4773 68.963 0.90786 103.44 1.2917-34.558 0.0469-69.115 0.0468-103.67-1e-5 34.557-0.0468 69.114-0.0468 103.67 1e-5 -34.483-0.29012-68.966-0.53348-103.45-0.7301z"/>
    <path d="m681.31-158.57c34.481 0.4773 68.963 0.90786 103.44 1.2917-34.558 0.0469-69.115 0.0468-103.67-1e-5 34.557-0.0468 69.114-0.0468 103.67 1e-5 -34.483-0.29012-68.966-0.53348-103.45-0.7301z"/>
    <path d="m681.35-157.85c34.481 0.4773 68.963 0.90786 103.44 1.2917-34.558 0.0468-69.115 0.0468-103.67-1e-5 34.557-0.0468 69.114-0.0468 103.67 1e-5 -34.483-0.29012-68.966-0.53348-103.45-0.7301z"/>
    <path d="m681.31-157.05c34.481 0.4773 68.963 0.90786 103.44 1.2917-34.558 0.0469-69.115 0.0468-103.67-1e-5 34.557-0.0468 69.114-0.0468 103.67 1e-5 -34.483-0.29012-68.966-0.53348-103.45-0.7301z"/>
    <path d="m681.31-156.37c34.481 0.4773 68.963 0.90786 103.44 1.2917-34.558 0.0468-69.115 0.0468-103.67-1e-5 34.557-0.0468 69.114-0.0468 103.67 1e-5 -34.483-0.29012-68.966-0.53348-103.45-0.7301z"/>
    <path d="m681.19-155.61c34.481 0.4773 68.963 0.90786 103.44 1.2917-34.558 0.0469-69.115 0.0468-103.67-1e-5 34.557-0.0468 69.114-0.0468 103.67 1e-5 -34.483-0.29012-68.966-0.53348-103.45-0.7301z"/>
    <path d="m681.19-160.56c34.481 0.4773 68.963 0.90786 103.44 1.2917-34.558 0.0469-69.115 0.0468-103.67-1e-5 34.557-0.0468 69.114-0.0468 103.67 1e-5 -34.483-0.29012-68.966-0.53348-103.45-0.7301 2e-3 -0.18719 4e-3 -0.37437 5e-3 -0.56156z"/>
    <path d="m681.19-161.16c34.481 0.4773 68.963 0.90786 103.44 1.2917-34.558 0.0469-69.115 0.0468-103.67-1e-5 34.557-0.0468 69.114-0.0468 103.67 1e-5 -34.483-0.29012-68.966-0.53348-103.45-0.7301 2e-3 -0.18719 4e-3 -0.37437 5e-3 -0.56156z"/>
    <path d="m681.23-161.73c34.481 0.4773 68.963 0.90786 103.44 1.2917-34.558 0.0469-69.115 0.0468-103.67-1e-5 34.557-0.0468 69.114-0.0468 103.67 1e-5 -34.483-0.29012-68.966-0.53348-103.45-0.7301z"/>
    <path d="m681.34-162.34c34.481 0.4773 68.963 0.90786 103.44 1.2917-34.558 0.0469-69.115 0.0468-103.67-1e-5 34.557-0.0468 69.114-0.0468 103.67 1e-5 -34.483-0.29012-68.966-0.53348-103.45-0.7301z"/>
    <path d="m681.19-159.91c34.481 0.4773 68.963 0.90786 103.44 1.2917-34.558 0.0469-69.115 0.0468-103.67-1e-5 34.557-0.0468 69.114-0.0468 103.67 1e-5 -34.483-0.29012-68.966-0.53348-103.45-0.7301 2e-3 -0.18719 4e-3 -0.37437 5e-3 -0.56156z"/>
   </g>
   <path transform="matrix(2.5281 0 0 2.5281 -1102.4 58.031)" d="m723.82 260.51 84.359-0.222c2.361-0.64911 2.3989-1.0271 2.886-3.219 1e-5 -0.62899 0-1.258 0-1.887h-0.99898c0.0498 3.0465-0.62252 3.2686-2.442 3.774l-83.471 0.44399z" fill="#273143" filter="url(#h)" opacity=".4469"/>
   <path transform="matrix(2.5281 0 0 6.923 -1102.4 -1066.6)" d="m703.53 252.92 0.36152-39.768 3.9768 0.36153-0.36153 40.491z" fill="url(#b)" filter="url(#g)" opacity=".40708"/>
  </g>
 </g>
</svg>
